<svg width="788" height="150" viewBox="0 0 788 150" fill="none" xmlns="http://www.w3.org/2000/svg">
<path d="M66.1195 61.4535C65.1729 61.8827 65.2153 63.5776 66.1832 63.9564C70.1537 65.5101 73.4161 67.9898 75.9704 71.3956C79.39 75.7394 81.0998 80.7301 81.0998 86.3678C81.0998 94.6858 78.2348 101.201 72.5046 105.915C66.7745 110.628 58.7338 112.985 48.3826 112.985H3C1.34315 112.985 0 111.642 0 109.985V18.2495C0 16.5927 1.34315 15.2495 3 15.2495H46.8577C56.8392 15.2495 64.6488 17.4677 70.2865 21.9039C76.0166 26.3401 78.8817 32.5786 78.8817 40.6192C78.8817 46.3494 77.3567 51.1553 74.3068 55.037C72.129 57.8273 69.3999 59.9662 66.1195 61.4535ZM27.1719 51.0665C27.1719 52.7234 28.515 54.0665 30.1719 54.0665H40.8965C47.7357 54.0665 51.1553 51.2477 51.1553 45.61C51.1553 39.7874 47.7357 36.8762 40.8965 36.8762H30.1719C28.515 36.8762 27.1719 38.2193 27.1719 39.8762V51.0665ZM42.976 91.0813C49.8152 91.0813 53.2347 88.2163 53.2347 82.4861C53.2347 79.5286 52.3105 77.2643 50.4621 75.6932C48.7061 74.122 46.1645 73.3364 42.8373 73.3364H30.1719C28.515 73.3364 27.1719 74.6796 27.1719 76.3364V88.0813C27.1719 89.7382 28.515 91.0813 30.1719 91.0813H42.976Z" fill="black"/>
<path d="M117.407 48.9372C120.457 44.5009 124.154 40.9889 128.498 38.4011C131.961 36.3378 135.631 35.097 139.505 34.6788C141.153 34.5011 142.5 35.8626 142.5 37.5194V60.4935C142.5 62.1504 141.157 63.4935 139.5 63.4935H134.875C128.96 63.4935 124.57 64.6488 121.705 66.9593C118.84 69.2699 117.407 73.2902 117.407 79.0203V109.985C117.407 111.642 116.064 112.985 114.407 112.985H93.2355C91.5786 112.985 90.2355 111.642 90.2355 109.985V38.2126C90.2355 36.5557 91.5786 35.2126 93.2355 35.2126H114.407C116.064 35.2126 117.407 36.5557 117.407 38.2126V48.9372Z" fill="black"/>
<path d="M165.965 28.0037C161.16 28.0037 157.278 26.7098 154.32 24.122C151.455 21.4418 150.023 18.1146 150.023 14.1405C150.023 10.0739 151.455 6.70056 154.32 4.02034C157.278 1.34011 161.16 0 165.965 0C170.679 0 174.468 1.34011 177.333 4.02034C180.291 6.70056 181.77 10.0739 181.77 14.1405C181.77 18.1146 180.291 21.4418 177.333 24.122C174.468 26.7098 170.679 28.0037 165.965 28.0037ZM176.413 35.2126C178.07 35.2126 179.413 36.5557 179.413 38.2126V109.985C179.413 111.642 178.07 112.985 176.413 112.985H155.241C153.584 112.985 152.241 111.642 152.241 109.985V38.2126C152.241 36.5557 153.584 35.2126 155.241 35.2126H176.413Z" fill="black"/>
<path d="M269.193 73.1978C269.193 74.4502 269.145 75.7027 269.049 76.9551C268.933 78.4575 267.65 79.5749 266.143 79.5749H219.48C218.324 79.5749 217.398 80.5548 217.569 81.6978C218.051 84.9038 219.131 87.3847 220.811 89.1405C222.936 91.1738 225.617 92.1904 228.851 92.1904C232.721 92.1904 235.645 90.7061 237.626 87.7376C238.267 86.7757 239.292 86.0906 240.448 86.0906H263.783C265.704 86.0906 267.136 87.8772 266.519 89.6968C265.185 93.6297 263.165 97.2335 260.46 100.508C257.04 104.667 252.696 107.948 247.428 110.351C242.16 112.754 236.338 113.956 229.96 113.956C222.289 113.956 215.45 112.338 209.443 109.104C203.528 105.869 198.861 101.248 195.441 95.2403C192.114 89.2329 190.45 82.1627 190.45 74.0296C190.45 65.8965 192.114 58.8725 195.441 52.9575C198.768 46.9501 203.389 42.329 209.304 39.0943C215.312 35.8595 222.197 34.2421 229.96 34.2421C237.631 34.2421 244.424 35.8133 250.339 38.9556C256.254 42.098 260.875 46.6266 264.203 52.5416C267.53 58.3641 269.193 65.2495 269.193 73.1978ZM239.467 66.4048C240.571 66.4048 241.489 65.5034 241.321 64.4117C240.954 62.0262 239.893 60.1027 238.14 58.6414C235.922 56.7006 233.149 55.7301 229.822 55.7301C226.495 55.7301 223.768 56.6543 221.642 58.5028C220.016 59.8462 218.823 61.7035 218.062 64.0746C217.68 65.2646 218.636 66.4048 219.886 66.4048H239.467Z" fill="black"/>
<path d="M322.319 54.8096C322.319 56.4665 320.976 57.8096 319.319 57.8096H312.119C311.014 57.8096 310.119 58.705 310.119 59.8096V109.985C310.119 111.642 308.776 112.985 307.119 112.985H285.809C284.152 112.985 282.809 111.642 282.809 109.985V59.8096C282.809 58.705 281.913 57.8096 280.809 57.8096H277.352C275.695 57.8096 274.352 56.4665 274.352 54.8096V38.2126C274.352 36.5557 275.695 35.2126 277.352 35.2126H282.115C282.498 35.2126 282.809 34.9022 282.809 34.5194C282.809 24.5379 285.72 16.9131 291.542 11.6451C297.457 6.28466 305.914 3.60444 316.912 3.60444C317.774 3.60444 318.558 3.61141 319.267 3.62535C320.834 3.65621 322.041 4.95356 322.041 6.52117V23.8398C322.041 25.4619 320.614 26.756 318.991 26.756C316.034 26.756 313.862 27.4492 312.476 28.8355C311.445 29.7975 310.746 31.2193 310.38 33.1008C310.159 34.2332 311.094 35.2126 312.248 35.2126H319.319C320.976 35.2126 322.319 36.5557 322.319 38.2126V54.8096Z" fill="black"/>
<path d="M399.535 61.4535C398.589 61.8827 398.631 63.5776 399.599 63.9564C403.569 65.5101 406.832 67.9898 409.386 71.3956C412.806 75.7394 414.516 80.7301 414.516 86.3678C414.516 94.6858 411.651 101.201 405.92 105.915C400.19 110.628 392.15 112.985 381.798 112.985H336.416C334.759 112.985 333.416 111.642 333.416 109.985V18.2495C333.416 16.5927 334.759 15.2495 336.416 15.2495H380.273C390.255 15.2495 398.065 17.4677 403.702 21.9039C409.432 26.3401 412.297 32.5786 412.297 40.6192C412.297 46.3494 410.772 51.1553 407.723 55.037C405.545 57.8273 402.816 59.9662 399.535 61.4535ZM360.588 51.0665C360.588 52.7234 361.931 54.0665 363.588 54.0665H374.312C381.151 54.0665 384.571 51.2477 384.571 45.61C384.571 39.7874 381.151 36.8762 374.312 36.8762H363.588C361.931 36.8762 360.588 38.2193 360.588 39.8762V51.0665ZM376.392 91.0813C383.231 91.0813 386.65 88.2163 386.65 82.4861C386.65 79.5286 385.726 77.2643 383.878 75.6932C382.122 74.122 379.58 73.3364 376.253 73.3364H363.588C361.931 73.3364 360.588 74.6796 360.588 76.3364V88.0813C360.588 89.7382 361.931 91.0813 363.588 91.0813H376.392Z" fill="black"/>
<path d="M500.226 35.2126C501.883 35.2126 503.226 36.5557 503.226 38.2126V109.985C503.226 111.642 501.883 112.985 500.226 112.985H478.916C477.259 112.985 475.916 111.642 475.916 109.985V105.234C475.916 104.242 474.548 103.803 473.894 104.55C471.854 106.879 469.339 108.859 466.35 110.49C462.283 112.616 457.616 113.678 452.348 113.678C443.291 113.678 436.128 110.721 430.86 104.806C425.684 98.7985 423.097 90.6654 423.097 80.4067V38.2126C423.097 36.5557 424.44 35.2126 426.097 35.2126H447.13C448.787 35.2126 450.13 36.5557 450.13 38.2126V76.9408C450.13 81.3771 451.285 84.8891 453.596 87.4769C455.999 89.9723 459.141 91.22 463.023 91.22C466.997 91.22 470.139 89.9723 472.45 87.4769C474.76 84.8891 475.916 81.3771 475.916 76.9408V38.2126C475.916 36.5557 477.259 35.2126 478.916 35.2126H500.226Z" fill="black"/>
<path d="M512.867 74.0296C512.867 65.9889 514.3 58.9649 517.165 52.9575C520.123 46.9501 524.143 42.329 529.226 39.0943C534.309 35.8595 539.947 34.2421 546.139 34.2421C551.13 34.2421 555.566 35.305 559.448 37.4307C562.305 38.8925 564.709 40.7605 566.658 43.0345C567.314 43.8 568.736 43.3625 568.736 42.3542V13.3974C568.736 11.7406 570.079 10.3974 571.736 10.3974H593.047C594.704 10.3974 596.047 11.7406 596.047 13.3974V109.985C596.047 111.642 594.704 112.985 593.047 112.985H571.736C570.079 112.985 568.736 111.642 568.736 109.985V105.836C568.736 104.818 567.281 104.383 566.629 105.165C564.765 107.4 562.463 109.268 559.725 110.767C555.843 112.893 551.269 113.956 546.001 113.956C539.808 113.956 534.171 112.338 529.087 109.104C524.097 105.869 520.123 101.248 517.165 95.2403C514.3 89.1405 512.867 82.0702 512.867 74.0296ZM568.875 74.0296C568.875 69.0388 567.489 65.1109 564.716 62.2458C562.036 59.3808 558.708 57.9482 554.734 57.9482C550.668 57.9482 547.294 59.3808 544.614 62.2458C541.934 65.0185 540.594 68.9464 540.594 74.0296C540.594 79.0203 541.934 82.9945 544.614 85.9519C547.294 88.817 550.668 90.2495 554.734 90.2495C558.708 90.2495 562.036 88.817 564.716 85.9519C567.489 83.0869 568.875 79.1128 568.875 74.0296Z" fill="black"/>
<path d="M607.094 74.0296C607.094 65.9889 608.527 58.9649 611.392 52.9575C614.349 46.9501 618.369 42.329 623.453 39.0943C628.536 35.8595 634.174 34.2421 640.366 34.2421C645.357 34.2421 649.793 35.305 653.674 37.4307C656.532 38.8925 658.935 40.7605 660.885 43.0345C661.541 43.8 662.963 43.3625 662.963 42.3542V13.3974C662.963 11.7406 664.306 10.3974 665.963 10.3974H687.273C688.93 10.3974 690.273 11.7406 690.273 13.3974V109.985C690.273 111.642 688.93 112.985 687.273 112.985H665.963C664.306 112.985 662.963 111.642 662.963 109.985V105.836C662.963 104.818 661.508 104.383 660.856 105.165C658.991 107.4 656.69 109.268 653.952 110.767C650.07 112.893 645.495 113.956 640.227 113.956C634.035 113.956 628.397 112.338 623.314 109.104C618.323 105.869 614.349 101.248 611.392 95.2403C608.527 89.1405 607.094 82.0702 607.094 74.0296ZM663.101 74.0296C663.101 69.0388 661.715 65.1109 658.943 62.2458C656.262 59.3808 652.935 57.9482 648.961 57.9482C644.894 57.9482 641.521 59.3808 638.841 62.2458C636.161 65.0185 634.82 68.9464 634.82 74.0296C634.82 79.0203 636.161 82.9945 638.841 85.9519C641.521 88.817 644.894 90.2495 648.961 90.2495C652.935 90.2495 656.262 88.817 658.943 85.9519C661.715 83.0869 663.101 79.1128 663.101 74.0296Z" fill="black"/>
<path d="M784.935 35.2126C787.091 35.2126 788.543 37.4175 787.691 39.3975L740.918 148.185C740.444 149.286 739.361 150 738.162 150H715.293C713.105 150 711.653 147.733 712.568 145.745L728.071 112.079C728.781 110.538 728.804 108.768 728.136 107.208L699.091 39.3937C698.243 37.4142 699.695 35.2126 701.849 35.2126H725.435C726.69 35.2126 727.812 35.9929 728.248 37.1689L742.927 76.7274C743.251 77.602 744.491 77.5951 744.806 76.7169L758.972 37.2002C759.4 36.008 760.53 35.2126 761.796 35.2126H784.935Z" fill="black"/>
</svg>
