<svg width="455" height="269" viewBox="0 0 455 269" fill="none" xmlns="http://www.w3.org/2000/svg">
<path d="M66.1195 61.4535C65.1729 61.8827 65.2153 63.5776 66.1832 63.9564C70.1537 65.5101 73.4161 67.9898 75.9704 71.3956C79.39 75.7394 81.0998 80.7301 81.0998 86.3678C81.0998 94.6858 78.2347 101.201 72.5046 105.915C66.7745 110.628 58.7338 112.985 48.3826 112.985H3C1.34315 112.985 0 111.642 0 109.985V18.2495C0 16.5927 1.34315 15.2495 3 15.2495H46.8577C56.8392 15.2495 64.6488 17.4677 70.2865 21.9039C76.0166 26.3401 78.8817 32.5786 78.8817 40.6192C78.8817 46.3494 77.3567 51.1553 74.3068 55.037C72.129 57.8273 69.3999 59.9662 66.1195 61.4535ZM27.1719 51.0665C27.1719 52.7234 28.515 54.0665 30.1719 54.0665H40.8965C47.7357 54.0665 51.1553 51.2477 51.1553 45.61C51.1553 39.7874 47.7357 36.8762 40.8965 36.8762H30.1719C28.5151 36.8762 27.1719 38.2193 27.1719 39.8762V51.0665ZM42.976 91.0813C49.8152 91.0813 53.2347 88.2163 53.2347 82.4861C53.2347 79.5287 52.3105 77.2643 50.4621 75.6932C48.7061 74.122 46.1645 73.3364 42.8373 73.3364H30.1719C28.515 73.3364 27.1719 74.6796 27.1719 76.3364V88.0813C27.1719 89.7382 28.515 91.0813 30.1719 91.0813H42.976Z" fill="black"/>
<path d="M117.407 48.9372C120.457 44.5009 124.154 40.9889 128.498 38.4011C131.961 36.3378 135.631 35.097 139.505 34.6788C141.153 34.5011 142.5 35.8626 142.5 37.5194V60.4935C142.5 62.1504 141.157 63.4935 139.5 63.4935H134.875C128.96 63.4935 124.57 64.6488 121.705 66.9593C118.84 69.2699 117.407 73.2902 117.407 79.0203V109.985C117.407 111.642 116.064 112.985 114.407 112.985H93.2355C91.5786 112.985 90.2355 111.642 90.2355 109.985V38.2126C90.2355 36.5557 91.5786 35.2126 93.2355 35.2126H114.407C116.064 35.2126 117.407 36.5557 117.407 38.2126V48.9372Z" fill="black"/>
<path d="M165.965 28.0037C161.16 28.0037 157.278 26.7098 154.32 24.122C151.455 21.4418 150.023 18.1146 150.023 14.1405C150.023 10.0739 151.455 6.70056 154.32 4.02034C157.278 1.34011 161.16 0 165.965 0C170.679 0 174.468 1.34011 177.333 4.02034C180.291 6.70056 181.77 10.0739 181.77 14.1405C181.77 18.1146 180.291 21.4418 177.333 24.122C174.468 26.7098 170.679 28.0037 165.965 28.0037ZM176.413 35.2126C178.07 35.2126 179.413 36.5557 179.413 38.2126V109.985C179.413 111.642 178.07 112.985 176.413 112.985H155.241C153.584 112.985 152.241 111.642 152.241 109.985V38.2126C152.241 36.5557 153.584 35.2126 155.241 35.2126H176.413Z" fill="black"/>
<path d="M269.193 73.1978C269.193 74.4502 269.145 75.7027 269.049 76.9551C268.934 78.4575 267.65 79.5749 266.143 79.5749H219.48C218.324 79.5749 217.398 80.5548 217.569 81.6978C218.051 84.9038 219.131 87.3847 220.811 89.1405C222.936 91.1738 225.617 92.1904 228.851 92.1904C232.721 92.1904 235.645 90.7061 237.626 87.7376C238.267 86.7757 239.292 86.0906 240.448 86.0906H263.783C265.704 86.0906 267.136 87.8772 266.519 89.6968C265.185 93.6297 263.165 97.2335 260.46 100.508C257.04 104.667 252.696 107.948 247.428 110.351C242.16 112.754 236.337 113.956 229.96 113.956C222.289 113.956 215.45 112.338 209.443 109.104C203.528 105.869 198.861 101.248 195.441 95.2403C192.114 89.2329 190.45 82.1627 190.45 74.0296C190.45 65.8965 192.114 58.8725 195.441 52.9575C198.768 46.9501 203.389 42.329 209.304 39.0943C215.312 35.8595 222.197 34.2421 229.96 34.2421C237.631 34.2421 244.424 35.8133 250.339 38.9556C256.254 42.098 260.875 46.6266 264.203 52.5416C267.53 58.3641 269.193 65.2495 269.193 73.1978ZM239.467 66.4048C240.571 66.4048 241.489 65.5034 241.321 64.4117C240.954 62.0261 239.893 60.1027 238.14 58.6414C235.922 56.7006 233.149 55.7301 229.822 55.7301C226.495 55.7301 223.768 56.6543 221.642 58.5028C220.016 59.8462 218.823 61.7035 218.062 64.0746C217.68 65.2646 218.636 66.4048 219.886 66.4048H239.467Z" fill="black"/>
<path d="M322.319 54.8096C322.319 56.4665 320.976 57.8096 319.319 57.8096H312.119C311.014 57.8096 310.119 58.705 310.119 59.8096V109.985C310.119 111.642 308.776 112.985 307.119 112.985H285.809C284.152 112.985 282.809 111.642 282.809 109.985V59.8096C282.809 58.705 281.913 57.8096 280.809 57.8096H277.352C275.695 57.8096 274.352 56.4665 274.352 54.8096V38.2126C274.352 36.5557 275.695 35.2126 277.352 35.2126H282.115C282.498 35.2126 282.809 34.9022 282.809 34.5194C282.809 24.5379 285.72 16.9131 291.542 11.6451C297.457 6.28466 305.914 3.60444 316.912 3.60444C317.774 3.60444 318.558 3.61141 319.267 3.62535C320.834 3.65621 322.041 4.95356 322.041 6.52117V23.8398C322.041 25.4619 320.614 26.756 318.991 26.756C316.034 26.756 313.862 27.4492 312.476 28.8355C311.445 29.7975 310.746 31.2193 310.38 33.1008C310.159 34.2332 311.094 35.2126 312.248 35.2126H319.319C320.976 35.2126 322.319 36.5557 322.319 38.2126V54.8096Z" fill="black"/>
<path d="M66.1195 179.556C65.1729 179.985 65.2153 181.68 66.1832 182.059C70.1537 183.613 73.4161 186.092 75.9704 189.498C79.39 193.842 81.0998 198.833 81.0998 204.47C81.0998 212.788 78.2348 219.304 72.5046 224.018C66.7745 228.731 58.7338 231.088 48.3826 231.088H3C1.34315 231.088 0 229.745 0 228.088V136.352C0 134.695 1.34315 133.352 3 133.352H46.8577C56.8392 133.352 64.6488 135.57 70.2865 140.006C76.0167 144.443 78.8817 150.681 78.8817 158.722C78.8817 164.452 77.3568 169.258 74.3069 173.14C72.129 175.93 69.3999 178.069 66.1195 179.556ZM27.1719 169.169C27.1719 170.826 28.5151 172.169 30.1719 172.169H40.8965C47.7357 172.169 51.1553 169.35 51.1553 163.713C51.1553 157.89 47.7357 154.979 40.8965 154.979H30.1719C28.5151 154.979 27.1719 156.322 27.1719 157.979V169.169ZM42.976 209.184C49.8152 209.184 53.2347 206.319 53.2347 200.589C53.2347 197.631 52.3105 195.367 50.4621 193.796C48.7061 192.225 46.1645 191.439 42.8373 191.439H30.1719C28.5151 191.439 27.1719 192.782 27.1719 194.439V206.184C27.1719 207.841 28.5151 209.184 30.1719 209.184H42.976Z" fill="black"/>
<path d="M166.81 153.315C168.467 153.315 169.81 154.658 169.81 156.315V228.088C169.81 229.745 168.467 231.088 166.81 231.088H145.5C143.843 231.088 142.5 229.745 142.5 228.088V223.337C142.5 222.344 141.133 221.906 140.479 222.652C138.438 224.982 135.923 226.962 132.934 228.592C128.868 230.718 124.2 231.781 118.932 231.781C109.875 231.781 102.712 228.823 97.4443 222.908C92.2687 216.901 89.6809 208.768 89.6809 198.509V156.315C89.6809 154.658 91.0241 153.315 92.6809 153.315H113.714C115.371 153.315 116.714 154.658 116.714 156.315V195.043C116.714 199.48 117.869 202.992 120.18 205.579C122.583 208.075 125.725 209.323 129.607 209.323C133.581 209.323 136.723 208.075 139.034 205.579C141.345 202.992 142.5 199.48 142.5 195.043V156.315C142.5 154.658 143.843 153.315 145.5 153.315H166.81Z" fill="black"/>
<path d="M179.452 192.132C179.452 184.091 180.884 177.067 183.749 171.06C186.707 165.053 190.727 160.432 195.81 157.197C200.894 153.962 206.531 152.345 212.723 152.345C217.714 152.345 222.15 153.408 226.032 155.533C228.889 156.995 231.293 158.863 233.242 161.137C233.899 161.903 235.321 161.465 235.321 160.457V131.5C235.321 129.843 236.664 128.5 238.321 128.5H259.631C261.288 128.5 262.631 129.843 262.631 131.5V228.088C262.631 229.745 261.288 231.088 259.631 231.088H238.321C236.664 231.088 235.321 229.745 235.321 228.088V223.939C235.321 222.92 233.866 222.485 233.213 223.267C231.349 225.503 229.048 227.37 226.309 228.87C222.428 230.995 217.853 232.058 212.585 232.058C206.393 232.058 200.755 230.441 195.672 227.206C190.681 223.971 186.707 219.35 183.749 213.343C180.884 207.243 179.452 200.173 179.452 192.132ZM235.459 192.132C235.459 187.141 234.073 183.213 231.3 180.348C228.62 177.483 225.293 176.051 221.319 176.051C217.252 176.051 213.879 177.483 211.199 180.348C208.518 183.121 207.178 187.049 207.178 192.132C207.178 197.123 208.518 201.097 211.199 204.055C213.879 206.92 217.252 208.352 221.319 208.352C225.293 208.352 228.62 206.92 231.3 204.055C234.073 201.189 235.459 197.215 235.459 192.132Z" fill="black"/>
<path d="M273.678 192.132C273.678 184.091 275.111 177.067 277.976 171.06C280.933 165.053 284.954 160.432 290.037 157.197C295.12 153.962 300.758 152.345 306.95 152.345C311.941 152.345 316.377 153.408 320.259 155.533C323.116 156.995 325.519 158.863 327.469 161.137C328.125 161.903 329.547 161.465 329.547 160.457V131.5C329.547 129.843 330.89 128.5 332.547 128.5H353.858C355.514 128.5 356.858 129.843 356.858 131.5V228.088C356.858 229.745 355.514 231.088 353.858 231.088H332.547C330.89 231.088 329.547 229.745 329.547 228.088V223.939C329.547 222.92 328.092 222.485 327.44 223.267C325.576 225.503 323.274 227.37 320.536 228.87C316.654 230.995 312.079 232.058 306.811 232.058C300.619 232.058 294.981 230.441 289.898 227.206C284.907 223.971 280.933 219.35 277.976 213.343C275.111 207.243 273.678 200.173 273.678 192.132ZM329.686 192.132C329.686 187.141 328.299 183.213 325.527 180.348C322.847 177.483 319.519 176.051 315.545 176.051C311.479 176.051 308.105 177.483 305.425 180.348C302.745 183.121 301.405 187.049 301.405 192.132C301.405 197.123 302.745 201.097 305.425 204.055C308.105 206.92 311.479 208.352 315.545 208.352C319.519 208.352 322.847 206.92 325.527 204.055C328.299 201.189 329.686 197.215 329.686 192.132Z" fill="black"/>
<path d="M451.52 153.315C453.675 153.315 455.127 155.52 454.276 157.5L407.502 266.288C407.029 267.389 405.945 268.103 404.746 268.103H381.877C379.689 268.103 378.237 265.835 379.152 263.848L394.655 230.182C395.365 228.64 395.389 226.87 394.72 225.31L365.675 157.496C364.827 155.517 366.28 153.315 368.433 153.315H392.02C393.274 153.315 394.396 154.096 394.832 155.271L409.511 194.83C409.836 195.705 411.075 195.698 411.39 194.82L425.556 155.303C425.984 154.111 427.114 153.315 428.38 153.315H451.52Z" fill="black"/>
</svg>
